<svg height="40" viewBox="0 0 384 384" width="40" fill="white" xmlns="http://www.w3.org/2000/svg"><path d="m383.792969 13.9375c-.175781-1.386719-.480469-2.722656-.992188-3.96875-.007812-.03125-.007812-.066406-.023437-.089844 0-.007812-.007813-.015625-.007813-.015625-.554687-1.320312-1.3125-2.511719-2.175781-3.625-.203125-.261719-.410156-.511719-.625-.757812-.914062-1.039063-1.914062-1.992188-3.066406-2.769531-.03125-.023438-.0625-.03125-.09375-.054688-1.121094-.734375-2.351563-1.289062-3.640625-1.726562-.320313-.113282-.632813-.210938-.960938-.296876-1.351562-.367187-2.742187-.632812-4.207031-.632812h-80c-8.832031 0-16 7.167969-16 16s7.167969 16 16 16h41.367188l-64.863282 64.863281c-65.519531-60.101562-152.792968-96.863281-248.503906-96.863281-8.832031 0-16 7.167969-16 16s7.167969 16 16 16c86.886719 0 166.183594 33.160156 225.894531 87.480469l-88.519531 88.519531h-73.375c-4.238281 0-8.3125 1.6875-11.3125 4.6875l-64 64c-4.574219 4.578125-5.945312 11.457031-3.472656 17.433594 2.480468 5.984375 8.3125 9.878906 14.785156 9.878906h64v64c0 6.472656 3.894531 12.304688 9.878906 14.785156 1.976563.816406 4.058594 1.214844 6.121094 1.214844 4.167969 0 8.257812-1.625 11.320312-4.6875l64-64c2.992188-3 4.679688-7.074219 4.679688-11.3125v-73.375l88.519531-88.519531c54.320313 59.710937 87.480469 139.007812 87.480469 225.894531 0 8.832031 7.167969 16 16 16s16-7.167969 16-16c0-95.710938-36.761719-182.984375-96.863281-248.511719l64.863281-64.863281v41.375c0 8.832031 7.167969 16 16 16s16-7.167969 16-16v-80c0-.335938-.078125-.65625-.097656-.984375-.023438-.367187-.0625-.71875-.109375-1.078125zm-329.160157 258.0625 32-32h34.742188l-32 32zm57.367188 57.367188v-34.742188l32-32v34.742188zm0 0"/></svg>